M48
INCH
T01C0.0150
T02C0.0300
T03C0.0250
T04C0.0400
T05C0.0600
T06C0.0800
%
T01
X+010500Y+005500
X+010500Y+003500
X+022500Y+018000
X+012500Y+018000
X+019500Y+011500
X+019500Y+001000
X+011500Y+011500
X+004500Y+011500
X+004500Y+010000
X+007500Y+010000
X+004500Y+008000
X+008500Y+008000
T02
X+006492Y+012500
X+007492Y+012500
X+008492Y+012500
X+009492Y+012500
X+010492Y+012500
X+011492Y+012500
X+012492Y+012500
X+013492Y+012500
X+014492Y+012500
X+015492Y+012500
X+016492Y+012500
X+017492Y+012500
X+018492Y+012500
X+019492Y+012500
X+019492Y+015500
X+018492Y+015500
X+017492Y+015500
X+016492Y+015500
X+015492Y+015500
X+014492Y+015500
X+013492Y+015500
X+012492Y+015500
X+011492Y+015500
X+010492Y+015500
X+009492Y+015500
X+008492Y+015500
X+006500Y+015500
X+014000Y+009000
X+016000Y+009000
X+015000Y+005500
X+014000Y+005500
X+015000Y+007000
X+016000Y+007000
X+010500Y+009000
X+006500Y+009000
X+015500Y+019000
X+016500Y+019000
X+017500Y+019000
X+018500Y+019000
X+019500Y+019000
X+020500Y+019000
X+021500Y+019000
X+022500Y+019000
X+022500Y+022000
X+021500Y+022000
X+020500Y+022000
X+019500Y+022000
X+018500Y+022000
X+017500Y+022000
X+016500Y+022000
X+015500Y+022000
X+031800Y+010000
X+031000Y+010000
X+030200Y+010000
X+029300Y+010000
X+028500Y+010000
X+027700Y+010000
X+026800Y+010000
X+026000Y+010000
X+025200Y+010000
X+024300Y+010000
X+023500Y+010000
X+022700Y+010000
X+021800Y+010000
X+021000Y+010000
X+020200Y+010000
X+021000Y+015500
X+021000Y+011500
X+030200Y+004500
X+030200Y+008500
X+027700Y+004500
X+027700Y+008500
X+025200Y+004500
X+025200Y+008500
X+022700Y+004500
X+022700Y+008500
X+020200Y+004500
X+020200Y+008500
X+031200Y+004500
X+031200Y+008500
X+028700Y+004500
X+028700Y+008500
X+026200Y+004500
X+026200Y+008500
X+023700Y+004500
X+023700Y+008500
X+011500Y+018000
X+010700Y+018000
X+009900Y+018000
X+003500Y+020500
X+007500Y+020500
X+007500Y+016500
X+011500Y+016500
T03
X+007492Y+015500
T04
X+011500Y+007000
X+010500Y+007000
X+009500Y+007000
X+008500Y+007000
X+007500Y+007000
X+012500Y+002500
X+011500Y+002500
X+010500Y+002500
X+017500Y+024000
X+018500Y+024000
X+019500Y+024000
X+020500Y+024000
X+021500Y+024000
X+022500Y+024000
X+023500Y+024000
X+024500Y+024000
X+025500Y+024000
X+026500Y+024000
X+027500Y+024000
X+028500Y+024000
X+016500Y+024000
T05
X+015000Y+002500
X+016970Y+002500
X+007500Y+024000
X+009470Y+024000
X+003500Y+010000
X+003500Y+008000
X+003500Y+006000
X+003500Y+004000
T06
X+002000Y+024000
X+033000Y+002000
X+033000Y+024000
M30
