  0
SECTION
  2
HEADER
  9
$ACADVER
  1
AC1006
  9
$EXTMIN
 10
0.0
 20
0.0
  9
$EXTMAX
 10
93.979996
 20
71.119995
  9
$LTSCALE
 40
0.000394
  9
$PDMODE
 70
35
  9
$PDSIZE
 40
0.000315
  0
ENDSEC
  0
SECTION
  2
TABLES
  0
TABLE
  2
LTYPE
 70
  9
  0
LTYPE
  2
CONTINUOUS
 70
 64
  3
Solid line
 72
 65
 73
  0
 40
0.000000
  0
LTYPE
  2
DASHED
 70
 64
  3
__ __ __ __ __ __ __ __ __ __ __ __ __ __ __
 72
 65
 73
  2
 40
0.000003
 49
0.000002
 49
-0.000001
  0
LTYPE
  2
HIDDEN
 70
 64
  3
 _ _ _ _ _ _ _ _ _ _ _ _ _ _ _ _ _ _ _ _ _ _
 72
 65
 73
  2
 40
0.000001
 49
0.000001
 49
-0.000000
  0
LTYPE
  2
CENTER
 70
 64
  3
____ _ ____ _ ____ _ ____ _ ____ _ ____ _ ____
 72
 65
 73
  4
 40
0.000008
 49
0.000005
 49
-0.000001
 49
0.000001
 49
-0.000001
  0
LTYPE
  2
PHANTOM
 70
 64
  3
_____ _ _ _____ _ _ _____ _ _ _____ _ _ ____
 72
 65
 73
  6
 40
0.000010
 49
0.000005
 49
-0.000001
 49
0.000001
 49
-0.000001
 49
0.000001
 49
-0.000001
  0
LTYPE
  2
DOT
 70
 64
  3
...............................................
 72
 65
 73
  2
 40
0.000001
 49
0.000000
 49
-0.000001
  0
LTYPE
  2
DASHDOT
 70
 64
  3
__ . __ . __ . __ . __ . __ . __ . __ . __ . __
 72
 65
 73
  4
 40
0.000004
 49
0.000002
 49
-0.000001
 49
0.000000
 49
-0.000001
  0
LTYPE
  2
BORDER
 70
 64
  3
__ __ . __ __ . __ __ . __ __ . __ __ . __ __
 72
 65
 73
  6
 40
0.000007
 49
0.000002
 49
-0.000001
 49
0.000002
 49
-0.000001
 49
0.000000
 49
-0.000001
  0
LTYPE
  2
DIVIDE
 70
 64
  3
__ . . __ . . __ . . __ . . __ . . __ . . __
 72
 65
 73
  6
 40
0.000005
 49
0.000002
 49
-0.000001
 49
0.000000
 49
-0.000001
 49
0.000000
 49
-0.000001
  0
LTYPE
  2
DOTDOT
 70
 64
  3
 . .  . .  . .  . .  . .  . .
 72
 65
 73
  5
 40
0.000002
 49
-0.000001
 49
0.000000
 49
-0.000001
 49
0.000000
 49
-0.000001
  0
ENDTAB
  0
TABLE
  2
STYLE
 70
  0
  0
ENDTAB
  0
TABLE
  2
LAYER
 70
  4
  0
LAYER
  2
FOREGROUND
 70
 64
 62
  7
  6
CONTINUOUS
  0
LAYER
  2
BACKGROUND
 70
 65
 62
 -7
  6
CONTINUOUS
  0
LAYER
  2
PLAN_1
 70
 64
 62
  7
  6
CONTINUOUS
  0
ENDTAB
  0
ENDSEC
  0
SECTION
  2
ENTITIES
  0
POINT
  8
PLAN_1
 62
7
 10
64.769997
 20
16.509998
  0
POINT
  8
PLAN_1
 62
7
 10
64.769997
 20
20.32
  0
POINT
  8
PLAN_1
 62
7
 10
62.23
 20
20.32
  0
POINT
  8
PLAN_1
 62
7
 10
67.309998
 20
20.32
  0
POINT
  8
PLAN_1
 62
7
 10
64.769997
 20
11.429999
  0
POINT
  8
PLAN_1
 62
7
 10
69.849998
 20
20.32
  0
POINT
  8
PLAN_1
 62
7
 10
64.769997
 20
8.889999
  0
POINT
  8
PLAN_1
 62
7
 10
62.23
 20
8.889999
  0
POINT
  8
PLAN_1
 62
7
 10
69.849998
 20
22.859997
  0
POINT
  8
PLAN_1
 62
7
 10
72.389999
 20
20.32
  0
POINT
  8
PLAN_1
 62
7
 10
55.879997
 20
16.509998
  0
POINT
  8
PLAN_1
 62
7
 10
64.769997
 20
25.399998
  0
POINT
  8
PLAN_1
 62
7
 10
59.689999
 20
8.889999
  0
POINT
  8
PLAN_1
 62
7
 10
53.339996
 20
16.509998
  0
POINT
  8
PLAN_1
 62
7
 10
53.339996
 20
20.32
  0
POINT
  8
PLAN_1
 62
7
 10
55.879997
 20
25.399998
  0
POINT
  8
PLAN_1
 62
7
 10
74.929993
 20
25.399998
  0
POINT
  8
PLAN_1
 62
7
 10
53.339996
 20
8.889999
  0
POINT
  8
PLAN_1
 62
7
 10
72.389999
 20
27.939999
  0
POINT
  8
PLAN_1
 62
7
 10
50.799999
 20
20.32
  0
POINT
  8
PLAN_1
 62
7
 10
62.23
 20
31.749996
  0
POINT
  8
PLAN_1
 62
7
 10
80.009995
 20
22.859997
  0
POINT
  8
PLAN_1
 62
7
 10
50.799999
 20
25.399998
  0
POINT
  8
PLAN_1
 62
7
 10
64.790314
 20
34.289997
  0
POINT
  8
PLAN_1
 62
7
 10
82.549995
 20
17.779999
  0
POINT
  8
PLAN_1
 62
7
 10
62.250317
 20
34.289997
  0
POINT
  8
PLAN_1
 62
7
 10
67.330322
 20
34.289997
  0
POINT
  8
PLAN_1
 62
7
 10
48.336197
 20
8.889999
  0
POINT
  8
PLAN_1
 62
7
 10
82.549995
 20
12.699999
  0
POINT
  8
PLAN_1
 62
7
 10
59.71032
 20
34.289997
  0
POINT
  8
PLAN_1
 62
7
 10
69.870316
 20
34.289997
  0
POINT
  8
PLAN_1
 62
7
 10
82.549995
 20
22.859997
  0
POINT
  8
PLAN_1
 62
7
 10
80.009995
 20
27.939999
  0
POINT
  8
PLAN_1
 62
7
 10
57.170319
 20
34.289997
  0
POINT
  8
PLAN_1
 62
7
 10
72.410316
 20
34.289997
  0
POINT
  8
PLAN_1
 62
7
 10
54.630318
 20
34.289997
  0
POINT
  8
PLAN_1
 62
7
 10
74.950317
 20
34.289997
  0
POINT
  8
PLAN_1
 62
7
 10
82.549995
 20
27.939999
  0
POINT
  8
PLAN_1
 62
7
 10
80.009995
 20
31.749996
  0
POINT
  8
PLAN_1
 62
7
 10
52.090317
 20
34.289997
  0
POINT
  8
PLAN_1
 62
7
 10
49.55032
 20
34.289997
  0
POINT
  8
PLAN_1
 62
7
 10
40.132
 20
13.969999
  0
POINT
  8
PLAN_1
 62
7
 10
47.010319
 20
34.289997
  0
POINT
  8
PLAN_1
 62
7
 10
64.790314
 20
41.909996
  0
POINT
  8
PLAN_1
 62
7
 10
62.250317
 20
41.909996
  0
POINT
  8
PLAN_1
 62
7
 10
67.330322
 20
41.909996
  0
POINT
  8
PLAN_1
 62
7
 10
41.91
 20
5.08
  0
POINT
  8
PLAN_1
 62
7
 10
40.132
 20
24.129997
  0
POINT
  8
PLAN_1
 62
7
 10
59.71032
 20
41.909996
  0
POINT
  8
PLAN_1
 62
7
 10
69.870316
 20
41.909996
  0
POINT
  8
PLAN_1
 62
7
 10
57.170319
 20
41.909996
  0
POINT
  8
PLAN_1
 62
7
 10
72.410316
 20
41.909996
  0
POINT
  8
PLAN_1
 62
7
 10
44.470318
 20
34.289997
  0
POINT
  8
PLAN_1
 62
7
 10
40.132
 20
27.939999
  0
POINT
  8
PLAN_1
 62
7
 10
54.630318
 20
41.909996
  0
POINT
  8
PLAN_1
 62
7
 10
74.929993
 20
41.909996
  0
POINT
  8
PLAN_1
 62
7
 10
41.91
 20
31.749996
  0
POINT
  8
PLAN_1
 62
7
 10
62.23
 20
44.449997
  0
POINT
  8
PLAN_1
 62
7
 10
52.090317
 20
41.909996
  0
POINT
  8
PLAN_1
 62
7
 10
41.930321
 20
34.289997
  0
POINT
  8
PLAN_1
 62
7
 10
72.389999
 20
44.449997
  0
POINT
  8
PLAN_1
 62
7
 10
38.099998
 20
27.939999
  0
POINT
  8
PLAN_1
 62
7
 10
49.55032
 20
41.909996
  0
POINT
  8
PLAN_1
 62
7
 10
38.099998
 20
31.749996
  0
POINT
  8
PLAN_1
 62
7
 10
36.068001
 20
27.939999
  0
POINT
  8
PLAN_1
 62
7
 10
47.010319
 20
41.909996
  0
POINT
  8
PLAN_1
 62
7
 10
33.782001
 20
13.969999
  0
POINT
  8
PLAN_1
 62
7
 10
64.261993
 20
48.259998
  0
POINT
  8
PLAN_1
 62
7
 10
66.293999
 20
48.259998
  0
POINT
  8
PLAN_1
 62
7
 10
62.23
 20
48.259998
  0
POINT
  8
PLAN_1
 62
7
 10
33.782001
 20
24.129997
  0
POINT
  8
PLAN_1
 62
7
 10
59.689999
 20
48.259998
  0
POINT
  8
PLAN_1
 62
7
 10
44.470318
 20
41.909996
  0
POINT
  8
PLAN_1
 62
7
 10
33.782001
 20
27.939999
  0
POINT
  8
PLAN_1
 62
7
 10
31.242001
 20
13.969999
  0
POINT
  8
PLAN_1
 62
7
 10
41.930321
 20
41.909996
  0
POINT
  8
PLAN_1
 62
7
 10
31.242001
 20
24.129997
  0
POINT
  8
PLAN_1
 62
7
 10
31.75
 20
27.939999
  0
POINT
  8
PLAN_1
 62
7
 10
52.07
 20
50.799995
  0
POINT
  8
PLAN_1
 62
7
 10
38.099998
 20
41.909996
  0
POINT
  8
PLAN_1
 62
7
 10
29.718002
 20
27.939999
  0
POINT
  8
PLAN_1
 62
7
 10
27.431999
 20
13.969999
  0
POINT
  8
PLAN_1
 62
7
 10
49.529999
 20
50.799995
  0
POINT
  8
PLAN_1
 62
7
 10
27.431999
 20
24.129997
  0
POINT
  8
PLAN_1
 62
7
 10
46.989998
 20
50.799995
  0
POINT
  8
PLAN_1
 62
7
 10
72.389999
 20
54.609997
  0
POINT
  8
PLAN_1
 62
7
 10
27.431999
 20
27.939999
  0
POINT
  8
PLAN_1
 62
7
 10
44.449997
 20
50.799995
  0
POINT
  8
PLAN_1
 62
7
 10
24.891998
 20
13.969999
  0
POINT
  8
PLAN_1
 62
7
 10
24.891998
 20
24.129997
  0
POINT
  8
PLAN_1
 62
7
 10
25.400002
 20
27.939999
  0
POINT
  8
PLAN_1
 62
7
 10
41.91
 20
50.799995
  0
POINT
  8
PLAN_1
 62
7
 10
82.549995
 20
54.609997
  0
POINT
  8
PLAN_1
 62
7
 10
39.369999
 20
50.799995
  0
POINT
  8
PLAN_1
 62
7
 10
23.368004
 20
27.939999
  0
POINT
  8
PLAN_1
 62
7
 10
21.082001
 20
13.969999
  0
POINT
  8
PLAN_1
 62
7
 10
52.07
 20
58.419994
  0
POINT
  8
PLAN_1
 62
7
 10
34.290001
 20
48.259998
  0
POINT
  8
PLAN_1
 62
7
 10
36.829998
 20
50.799995
  0
POINT
  8
PLAN_1
 62
7
 10
21.082001
 20
24.129997
  0
POINT
  8
PLAN_1
 62
7
 10
49.529999
 20
58.419994
  0
POINT
  8
PLAN_1
 62
7
 10
21.082001
 20
27.939999
  0
POINT
  8
PLAN_1
 62
7
 10
46.989998
 20
58.419994
  0
POINT
  8
PLAN_1
 62
7
 10
34.290001
 20
50.799995
  0
POINT
  8
PLAN_1
 62
7
 10
18.542
 20
13.969999
  0
POINT
  8
PLAN_1
 62
7
 10
44.449997
 20
58.419994
  0
POINT
  8
PLAN_1
 62
7
 10
18.542
 20
24.129997
  0
POINT
  8
PLAN_1
 62
7
 10
67.3862
 20
63.499996
  0
POINT
  8
PLAN_1
 62
7
 10
19.050003
 20
27.939999
  0
POINT
  8
PLAN_1
 62
7
 10
72.389999
 20
63.499996
  0
POINT
  8
PLAN_1
 62
7
 10
41.91
 20
58.419994
  0
POINT
  8
PLAN_1
 62
7
 10
39.369999
 20
58.419994
  0
POINT
  8
PLAN_1
 62
7
 10
17.017998
 20
27.939999
  0
POINT
  8
PLAN_1
 62
7
 10
49.529999
 20
63.499996
  0
POINT
  8
PLAN_1
 62
7
 10
14.732002
 20
13.969999
  0
POINT
  8
PLAN_1
 62
7
 10
46.989998
 20
63.499996
  0
POINT
  8
PLAN_1
 62
7
 10
36.829998
 20
58.419994
  0
POINT
  8
PLAN_1
 62
7
 10
14.732002
 20
24.129997
  0
POINT
  8
PLAN_1
 62
7
 10
44.449997
 20
63.499996
  0
POINT
  8
PLAN_1
 62
7
 10
14.732002
 20
27.939999
  0
POINT
  8
PLAN_1
 62
7
 10
86.359993
 20
63.499996
  0
POINT
  8
PLAN_1
 62
7
 10
34.290001
 20
58.419994
  0
POINT
  8
PLAN_1
 62
7
 10
41.91
 20
63.499996
  0
POINT
  8
PLAN_1
 62
7
 10
12.192001
 20
13.969999
  0
POINT
  8
PLAN_1
 62
7
 10
12.192001
 20
24.129997
  0
POINT
  8
PLAN_1
 62
7
 10
12.700005
 20
27.939999
  0
POINT
  8
PLAN_1
 62
7
 10
39.369999
 20
63.499996
  0
POINT
  8
PLAN_1
 62
7
 10
36.829998
 20
63.499996
  0
POINT
  8
PLAN_1
 62
7
 10
10.667999
 20
27.939999
  0
POINT
  8
PLAN_1
 62
7
 10
34.290001
 20
63.499996
  0
POINT
  8
PLAN_1
 62
7
 10
31.75
 20
63.499996
  0
POINT
  8
PLAN_1
 62
7
 10
7.620003
 20
7.619999
  0
POINT
  8
PLAN_1
 62
7
 10
29.209999
 20
63.499996
  0
POINT
  8
PLAN_1
 62
7
 10
26.669998
 20
63.499996
  0
POINT
  8
PLAN_1
 62
7
 10
24.129997
 20
63.499996
  0
POINT
  8
PLAN_1
 62
7
 10
21.590004
 20
63.499996
  0
POINT
  8
PLAN_1
 62
7
 10
19.050003
 20
63.499996
  0
POINT
  8
PLAN_1
 62
7
 10
7.620003
 20
63.499996
  0
LINE
  8
PLAN_1
 62
7
 10
92.189995
 20
1.79
 11
92.189995
 21
69.329994
  0
LINE
  8
PLAN_1
 62
7
 10
92.189995
 20
69.329994
 11
1.790001
 21
69.329994
  0
LINE
  8
PLAN_1
 62
7
 10
1.790001
 20
69.329994
 11
1.790001
 21
1.79
  0
LINE
  8
PLAN_1
 62
7
 10
1.790001
 20
1.79
 11
92.189995
 21
1.79
  0
ENDSEC
  0
EOF
