  0
SECTION
  2
HEADER
  9
$ACADVER
  1
AC1006
  9
$EXTMIN
 10
0.0
 20
0.0
  9
$EXTMAX
 10
93.979965
 20
71.119972
  9
$LTSCALE
 40
0.000394
  9
$PDMODE
 70
35
  9
$PDSIZE
 40
0.000315
  0
ENDSEC
  0
SECTION
  2
TABLES
  0
TABLE
  2
LTYPE
 70
  9
  0
LTYPE
  2
CONTINUOUS
 70
 64
  3
Solid line
 72
 65
 73
  0
 40
0.000000
  0
LTYPE
  2
DASHED
 70
 64
  3
__ __ __ __ __ __ __ __ __ __ __ __ __ __ __
 72
 65
 73
  2
 40
0.000003
 49
0.000002
 49
-0.000001
  0
LTYPE
  2
HIDDEN
 70
 64
  3
 _ _ _ _ _ _ _ _ _ _ _ _ _ _ _ _ _ _ _ _ _ _
 72
 65
 73
  2
 40
0.000001
 49
0.000001
 49
-0.000000
  0
LTYPE
  2
CENTER
 70
 64
  3
____ _ ____ _ ____ _ ____ _ ____ _ ____ _ ____
 72
 65
 73
  4
 40
0.000008
 49
0.000005
 49
-0.000001
 49
0.000001
 49
-0.000001
  0
LTYPE
  2
PHANTOM
 70
 64
  3
_____ _ _ _____ _ _ _____ _ _ _____ _ _ ____
 72
 65
 73
  6
 40
0.000010
 49
0.000005
 49
-0.000001
 49
0.000001
 49
-0.000001
 49
0.000001
 49
-0.000001
  0
LTYPE
  2
DOT
 70
 64
  3
...............................................
 72
 65
 73
  2
 40
0.000001
 49
0.000000
 49
-0.000001
  0
LTYPE
  2
DASHDOT
 70
 64
  3
__ . __ . __ . __ . __ . __ . __ . __ . __ . __
 72
 65
 73
  4
 40
0.000004
 49
0.000002
 49
-0.000001
 49
0.000000
 49
-0.000001
  0
LTYPE
  2
BORDER
 70
 64
  3
__ __ . __ __ . __ __ . __ __ . __ __ . __ __
 72
 65
 73
  6
 40
0.000007
 49
0.000002
 49
-0.000001
 49
0.000002
 49
-0.000001
 49
0.000000
 49
-0.000001
  0
LTYPE
  2
DIVIDE
 70
 64
  3
__ . . __ . . __ . . __ . . __ . . __ . . __
 72
 65
 73
  6
 40
0.000005
 49
0.000002
 49
-0.000001
 49
0.000000
 49
-0.000001
 49
0.000000
 49
-0.000001
  0
LTYPE
  2
DOTDOT
 70
 64
  3
 . .  . .  . .  . .  . .  . .
 72
 65
 73
  5
 40
0.000002
 49
-0.000001
 49
0.000000
 49
-0.000001
 49
0.000000
 49
-0.000001
  0
ENDTAB
  0
TABLE
  2
STYLE
 70
  0
  0
ENDTAB
  0
TABLE
  2
LAYER
 70
  4
  0
LAYER
  2
FOREGROUND
 70
 64
 62
  7
  6
CONTINUOUS
  0
LAYER
  2
BACKGROUND
 70
 65
 62
 -7
  6
CONTINUOUS
  0
LAYER
  2
PLAN_1
 70
 64
 62
  7
  6
CONTINUOUS
  0
ENDTAB
  0
ENDSEC
  0
SECTION
  2
ENTITIES
  0
POINT
  8
PLAN_1
 62
7
 10
64.769966
 20
16.509998
  0
POINT
  8
PLAN_1
 62
7
 10
64.769966
 20
20.319998
  0
POINT
  8
PLAN_1
 62
7
 10
62.229965
 20
20.319998
  0
POINT
  8
PLAN_1
 62
7
 10
67.309967
 20
20.319998
  0
POINT
  8
PLAN_1
 62
7
 10
64.769966
 20
11.429999
  0
POINT
  8
PLAN_1
 62
7
 10
69.849968
 20
20.319998
  0
POINT
  8
PLAN_1
 62
7
 10
64.769966
 20
8.889999
  0
POINT
  8
PLAN_1
 62
7
 10
62.229965
 20
8.889999
  0
POINT
  8
PLAN_1
 62
7
 10
69.849968
 20
22.859999
  0
POINT
  8
PLAN_1
 62
7
 10
72.389969
 20
20.319998
  0
POINT
  8
PLAN_1
 62
7
 10
55.879967
 20
16.509998
  0
POINT
  8
PLAN_1
 62
7
 10
64.769966
 20
25.399998
  0
POINT
  8
PLAN_1
 62
7
 10
59.689968
 20
8.889999
  0
POINT
  8
PLAN_1
 62
7
 10
53.33997
 20
16.509998
  0
POINT
  8
PLAN_1
 62
7
 10
53.33997
 20
20.319998
  0
POINT
  8
PLAN_1
 62
7
 10
55.879967
 20
25.399998
  0
POINT
  8
PLAN_1
 62
7
 10
74.929962
 20
25.399998
  0
POINT
  8
PLAN_1
 62
7
 10
53.33997
 20
8.889999
  0
POINT
  8
PLAN_1
 62
7
 10
72.389969
 20
27.939997
  0
POINT
  8
PLAN_1
 62
7
 10
50.799969
 20
20.319998
  0
POINT
  8
PLAN_1
 62
7
 10
62.229965
 20
31.749998
  0
POINT
  8
PLAN_1
 62
7
 10
80.009964
 20
22.859999
  0
POINT
  8
PLAN_1
 62
7
 10
50.799969
 20
25.399998
  0
POINT
  8
PLAN_1
 62
7
 10
64.790291
 20
34.289997
  0
POINT
  8
PLAN_1
 62
7
 10
82.549965
 20
17.779999
  0
POINT
  8
PLAN_1
 62
7
 10
62.25029
 20
34.289997
  0
POINT
  8
PLAN_1
 62
7
 10
67.330292
 20
34.289997
  0
POINT
  8
PLAN_1
 62
7
 10
48.33617
 20
8.889999
  0
POINT
  8
PLAN_1
 62
7
 10
82.549965
 20
12.699999
  0
POINT
  8
PLAN_1
 62
7
 10
59.710289
 20
34.289997
  0
POINT
  8
PLAN_1
 62
7
 10
69.870285
 20
34.289997
  0
POINT
  8
PLAN_1
 62
7
 10
82.549965
 20
22.859999
  0
POINT
  8
PLAN_1
 62
7
 10
80.009964
 20
27.939997
  0
POINT
  8
PLAN_1
 62
7
 10
57.170288
 20
34.289997
  0
POINT
  8
PLAN_1
 62
7
 10
72.410286
 20
34.289997
  0
POINT
  8
PLAN_1
 62
7
 10
54.630291
 20
34.289997
  0
POINT
  8
PLAN_1
 62
7
 10
74.950287
 20
34.289997
  0
POINT
  8
PLAN_1
 62
7
 10
82.549965
 20
27.939997
  0
POINT
  8
PLAN_1
 62
7
 10
80.009964
 20
31.749998
  0
POINT
  8
PLAN_1
 62
7
 10
52.09029
 20
34.289997
  0
POINT
  8
PLAN_1
 62
7
 10
49.550289
 20
34.289997
  0
POINT
  8
PLAN_1
 62
7
 10
40.131969
 20
13.969998
  0
POINT
  8
PLAN_1
 62
7
 10
47.010292
 20
34.289997
  0
POINT
  8
PLAN_1
 62
7
 10
64.790291
 20
41.909996
  0
POINT
  8
PLAN_1
 62
7
 10
62.25029
 20
41.909996
  0
POINT
  8
PLAN_1
 62
7
 10
67.330292
 20
41.909996
  0
POINT
  8
PLAN_1
 62
7
 10
41.909969
 20
5.08
  0
POINT
  8
PLAN_1
 62
7
 10
40.131969
 20
24.129997
  0
POINT
  8
PLAN_1
 62
7
 10
59.710289
 20
41.909996
  0
POINT
  8
PLAN_1
 62
7
 10
69.870285
 20
41.909996
  0
POINT
  8
PLAN_1
 62
7
 10
57.170288
 20
41.909996
  0
POINT
  8
PLAN_1
 62
7
 10
72.410286
 20
41.909996
  0
POINT
  8
PLAN_1
 62
7
 10
44.470291
 20
34.289997
  0
POINT
  8
PLAN_1
 62
7
 10
40.131969
 20
27.939997
  0
POINT
  8
PLAN_1
 62
7
 10
54.630291
 20
41.909996
  0
POINT
  8
PLAN_1
 62
7
 10
74.929962
 20
41.909996
  0
POINT
  8
PLAN_1
 62
7
 10
41.909969
 20
31.749998
  0
POINT
  8
PLAN_1
 62
7
 10
62.229965
 20
44.449997
  0
POINT
  8
PLAN_1
 62
7
 10
52.09029
 20
41.909996
  0
POINT
  8
PLAN_1
 62
7
 10
41.93029
 20
34.289997
  0
POINT
  8
PLAN_1
 62
7
 10
72.389969
 20
44.449997
  0
POINT
  8
PLAN_1
 62
7
 10
38.099972
 20
27.939997
  0
POINT
  8
PLAN_1
 62
7
 10
49.550289
 20
41.909996
  0
POINT
  8
PLAN_1
 62
7
 10
38.099972
 20
31.749998
  0
POINT
  8
PLAN_1
 62
7
 10
36.06797
 20
27.939997
  0
POINT
  8
PLAN_1
 62
7
 10
47.010292
 20
41.909996
  0
POINT
  8
PLAN_1
 62
7
 10
33.781971
 20
13.969998
  0
POINT
  8
PLAN_1
 62
7
 10
64.261971
 20
48.259995
  0
POINT
  8
PLAN_1
 62
7
 10
66.293968
 20
48.259995
  0
POINT
  8
PLAN_1
 62
7
 10
62.229965
 20
48.259995
  0
POINT
  8
PLAN_1
 62
7
 10
33.781971
 20
24.129997
  0
POINT
  8
PLAN_1
 62
7
 10
59.689968
 20
48.259995
  0
POINT
  8
PLAN_1
 62
7
 10
44.470291
 20
41.909996
  0
POINT
  8
PLAN_1
 62
7
 10
33.781971
 20
27.939997
  0
POINT
  8
PLAN_1
 62
7
 10
31.24197
 20
13.969998
  0
POINT
  8
PLAN_1
 62
7
 10
41.93029
 20
41.909996
  0
POINT
  8
PLAN_1
 62
7
 10
31.24197
 20
24.129997
  0
POINT
  8
PLAN_1
 62
7
 10
31.749969
 20
27.939997
  0
POINT
  8
PLAN_1
 62
7
 10
52.069969
 20
50.799995
  0
POINT
  8
PLAN_1
 62
7
 10
38.099972
 20
41.909996
  0
POINT
  8
PLAN_1
 62
7
 10
29.717972
 20
27.939997
  0
POINT
  8
PLAN_1
 62
7
 10
27.431969
 20
13.969998
  0
POINT
  8
PLAN_1
 62
7
 10
49.529968
 20
50.799995
  0
POINT
  8
PLAN_1
 62
7
 10
27.431969
 20
24.129997
  0
POINT
  8
PLAN_1
 62
7
 10
46.989967
 20
50.799995
  0
POINT
  8
PLAN_1
 62
7
 10
72.389969
 20
54.609997
  0
POINT
  8
PLAN_1
 62
7
 10
27.431969
 20
27.939997
  0
POINT
  8
PLAN_1
 62
7
 10
44.44997
 20
50.799995
  0
POINT
  8
PLAN_1
 62
7
 10
24.891968
 20
13.969998
  0
POINT
  8
PLAN_1
 62
7
 10
24.891968
 20
24.129997
  0
POINT
  8
PLAN_1
 62
7
 10
25.399994
 20
27.939997
  0
POINT
  8
PLAN_1
 62
7
 10
41.909969
 20
50.799995
  0
POINT
  8
PLAN_1
 62
7
 10
82.549965
 20
54.609997
  0
POINT
  8
PLAN_1
 62
7
 10
39.369968
 20
50.799995
  0
POINT
  8
PLAN_1
 62
7
 10
23.367973
 20
27.939997
  0
POINT
  8
PLAN_1
 62
7
 10
21.08197
 20
13.969998
  0
POINT
  8
PLAN_1
 62
7
 10
52.069969
 20
58.419994
  0
POINT
  8
PLAN_1
 62
7
 10
34.28997
 20
48.259995
  0
POINT
  8
PLAN_1
 62
7
 10
36.829971
 20
50.799995
  0
POINT
  8
PLAN_1
 62
7
 10
21.08197
 20
24.129997
  0
POINT
  8
PLAN_1
 62
7
 10
49.529968
 20
58.419994
  0
POINT
  8
PLAN_1
 62
7
 10
21.08197
 20
27.939997
  0
POINT
  8
PLAN_1
 62
7
 10
46.989967
 20
58.419994
  0
POINT
  8
PLAN_1
 62
7
 10
34.28997
 20
50.799995
  0
POINT
  8
PLAN_1
 62
7
 10
18.541969
 20
13.969998
  0
POINT
  8
PLAN_1
 62
7
 10
44.44997
 20
58.419994
  0
POINT
  8
PLAN_1
 62
7
 10
18.541969
 20
24.129997
  0
POINT
  8
PLAN_1
 62
7
 10
67.386169
 20
63.499996
  0
POINT
  8
PLAN_1
 62
7
 10
19.049973
 20
27.939997
  0
POINT
  8
PLAN_1
 62
7
 10
72.389969
 20
63.499996
  0
POINT
  8
PLAN_1
 62
7
 10
41.909969
 20
58.419994
  0
POINT
  8
PLAN_1
 62
7
 10
39.369968
 20
58.419994
  0
POINT
  8
PLAN_1
 62
7
 10
17.017975
 20
27.939997
  0
POINT
  8
PLAN_1
 62
7
 10
49.529968
 20
63.499996
  0
POINT
  8
PLAN_1
 62
7
 10
14.731972
 20
13.969998
  0
POINT
  8
PLAN_1
 62
7
 10
46.989967
 20
63.499996
  0
POINT
  8
PLAN_1
 62
7
 10
36.829971
 20
58.419994
  0
POINT
  8
PLAN_1
 62
7
 10
14.731972
 20
24.129997
  0
POINT
  8
PLAN_1
 62
7
 10
44.44997
 20
63.499996
  0
POINT
  8
PLAN_1
 62
7
 10
14.731972
 20
27.939997
  0
POINT
  8
PLAN_1
 62
7
 10
86.359962
 20
63.499996
  0
POINT
  8
PLAN_1
 62
7
 10
34.28997
 20
58.419994
  0
POINT
  8
PLAN_1
 62
7
 10
41.909969
 20
63.499996
  0
POINT
  8
PLAN_1
 62
7
 10
12.191994
 20
13.969998
  0
POINT
  8
PLAN_1
 62
7
 10
12.191994
 20
24.129997
  0
POINT
  8
PLAN_1
 62
7
 10
12.699974
 20
27.939997
  0
POINT
  8
PLAN_1
 62
7
 10
39.369968
 20
63.499996
  0
POINT
  8
PLAN_1
 62
7
 10
36.829971
 20
63.499996
  0
POINT
  8
PLAN_1
 62
7
 10
10.667969
 20
27.939997
  0
POINT
  8
PLAN_1
 62
7
 10
34.28997
 20
63.499996
  0
POINT
  8
PLAN_1
 62
7
 10
31.749969
 20
63.499996
  0
POINT
  8
PLAN_1
 62
7
 10
7.619972
 20
7.62
  0
POINT
  8
PLAN_1
 62
7
 10
29.209969
 20
63.499996
  0
POINT
  8
PLAN_1
 62
7
 10
26.669968
 20
63.499996
  0
POINT
  8
PLAN_1
 62
7
 10
24.129974
 20
63.499996
  0
POINT
  8
PLAN_1
 62
7
 10
21.589973
 20
63.499996
  0
POINT
  8
PLAN_1
 62
7
 10
19.049973
 20
63.499996
  0
POINT
  8
PLAN_1
 62
7
 10
7.619972
 20
63.499996
  0
LINE
  8
PLAN_1
 62
7
 10
92.189964
 20
1.79
 11
92.189964
 21
69.329971
  0
LINE
  8
PLAN_1
 62
7
 10
92.189964
 20
69.329971
 11
1.790001
 21
69.329971
  0
LINE
  8
PLAN_1
 62
7
 10
1.790001
 20
69.329971
 11
1.790001
 21
1.79
  0
LINE
  8
PLAN_1
 62
7
 10
1.790001
 20
1.79
 11
92.189964
 21
1.79
  0
ENDSEC
  0
EOF
