M48
INCH
T01C0.0150
T02C0.0300
T03C0.0250
T04C0.0400
T05C0.0600
T06C0.0800
%
T01
X+018000Y+029000
X+020000Y+029000
X+006000Y+027000
X+006000Y+031000
T02
X+015000Y+028000
X+015000Y+027000
X+015000Y+026000
X+015000Y+025000
X+015000Y+024000
X+015000Y+023000
X+015000Y+022000
X+015000Y+021000
X+015000Y+020000
X+015000Y+019000
X+015000Y+018000
X+015000Y+017000
X+015000Y+016000
X+015000Y+015000
X+018000Y+015000
X+018000Y+016000
X+018000Y+017000
X+018000Y+018000
X+018000Y+019000
X+018000Y+020000
X+018000Y+021000
X+018000Y+022000
X+018000Y+023000
X+018000Y+024000
X+018000Y+025000
X+018000Y+026000
X+018000Y+027992
X+013000Y+018500
X+013000Y+020500
X+009500Y+020500
X+009500Y+019500
X+011000Y+018500
X+011000Y+019500
X+013000Y+028000
X+013000Y+024000
X+025000Y+025300
X+025000Y+024500
X+025000Y+023700
X+020000Y+024500
X+024000Y+024500
X+020000Y+017500
X+024000Y+017500
X+025000Y+018300
X+025000Y+017500
X+025000Y+016700
X+025000Y+011300
X+025000Y+010500
X+025000Y+009700
X+025000Y+004300
X+025000Y+003500
X+025000Y+002700
X+020000Y+010500
X+024000Y+010500
X+020000Y+003500
X+024000Y+003500
X+018000Y+012500
X+018000Y+008500
X+017000Y+012500
X+017000Y+008500
X+016000Y+012500
X+016000Y+008500
X+015000Y+012500
X+015000Y+008500
T03
X+018000Y+027000
T04
X+009500Y+023000
X+009500Y+024000
X+009500Y+025000
X+009500Y+026000
X+009500Y+027000
X+011000Y+015000
X+012000Y+015000
X+013000Y+015000
T05
X+008000Y+016970
X+008000Y+015000
X+028000Y+028424
X+028000Y+023700
X+027212Y+026062
X+032803Y+028424
X+032803Y+023700
X+038712Y+024062
X+038712Y+026062
X+038712Y+028062
X+028000Y+021424
X+028000Y+016700
X+027212Y+019062
X+032803Y+021424
X+032803Y+016700
X+038712Y+017062
X+038712Y+019062
X+038712Y+021062
X+038712Y+010062
X+038712Y+012062
X+038712Y+014062
X+028000Y+014424
X+028000Y+009700
X+027212Y+012062
X+032803Y+014424
X+032803Y+009700
X+038712Y+003062
X+038712Y+005062
X+038712Y+007062
X+028000Y+007424
X+028000Y+002700
X+027212Y+005062
X+032803Y+007424
X+032803Y+002700
X+013000Y+002500
X+011000Y+002500
X+009000Y+002500
X+007000Y+002500
X+005000Y+002500
T06
X+002000Y+002000
X+002000Y+030000
X+042500Y+030000
X+042500Y+002000
M30
