  0
SECTION
  2
HEADER
  9
$ACADVER
  1
AC1006
  9
$EXTMIN
 10
0.0
 20
0.0
  9
$EXTMAX
 10
118.109993
 20
86.359993
  9
$LTSCALE
 40
0.000394
  9
$PDMODE
 70
35
  9
$PDSIZE
 40
0.000315
  0
ENDSEC
  0
SECTION
  2
TABLES
  0
TABLE
  2
LTYPE
 70
  9
  0
LTYPE
  2
CONTINUOUS
 70
 64
  3
Solid line
 72
 65
 73
  0
 40
0.000000
  0
LTYPE
  2
DASHED
 70
 64
  3
__ __ __ __ __ __ __ __ __ __ __ __ __ __ __
 72
 65
 73
  2
 40
0.000003
 49
0.000002
 49
-0.000001
  0
LTYPE
  2
HIDDEN
 70
 64
  3
 _ _ _ _ _ _ _ _ _ _ _ _ _ _ _ _ _ _ _ _ _ _
 72
 65
 73
  2
 40
0.000001
 49
0.000001
 49
-0.000000
  0
LTYPE
  2
CENTER
 70
 64
  3
____ _ ____ _ ____ _ ____ _ ____ _ ____ _ ____
 72
 65
 73
  4
 40
0.000008
 49
0.000005
 49
-0.000001
 49
0.000001
 49
-0.000001
  0
LTYPE
  2
PHANTOM
 70
 64
  3
_____ _ _ _____ _ _ _____ _ _ _____ _ _ ____
 72
 65
 73
  6
 40
0.000010
 49
0.000005
 49
-0.000001
 49
0.000001
 49
-0.000001
 49
0.000001
 49
-0.000001
  0
LTYPE
  2
DOT
 70
 64
  3
...............................................
 72
 65
 73
  2
 40
0.000001
 49
0.000000
 49
-0.000001
  0
LTYPE
  2
DASHDOT
 70
 64
  3
__ . __ . __ . __ . __ . __ . __ . __ . __ . __
 72
 65
 73
  4
 40
0.000004
 49
0.000002
 49
-0.000001
 49
0.000000
 49
-0.000001
  0
LTYPE
  2
BORDER
 70
 64
  3
__ __ . __ __ . __ __ . __ __ . __ __ . __ __
 72
 65
 73
  6
 40
0.000007
 49
0.000002
 49
-0.000001
 49
0.000002
 49
-0.000001
 49
0.000000
 49
-0.000001
  0
LTYPE
  2
DIVIDE
 70
 64
  3
__ . . __ . . __ . . __ . . __ . . __ . . __
 72
 65
 73
  6
 40
0.000005
 49
0.000002
 49
-0.000001
 49
0.000000
 49
-0.000001
 49
0.000000
 49
-0.000001
  0
LTYPE
  2
DOTDOT
 70
 64
  3
 . .  . .  . .  . .  . .  . .
 72
 65
 73
  5
 40
0.000002
 49
-0.000001
 49
0.000000
 49
-0.000001
 49
0.000000
 49
-0.000001
  0
ENDTAB
  0
TABLE
  2
STYLE
 70
  0
  0
ENDTAB
  0
TABLE
  2
LAYER
 70
  4
  0
LAYER
  2
FOREGROUND
 70
 64
 62
  7
  6
CONTINUOUS
  0
LAYER
  2
BACKGROUND
 70
 65
 62
 -7
  6
CONTINUOUS
  0
LAYER
  2
PLAN_1
 70
 64
 62
  7
  6
CONTINUOUS
  0
ENDTAB
  0
ENDSEC
  0
SECTION
  2
ENTITIES
  0
POINT
  8
PLAN_1
 62
7
 10
69.849991
 20
76.199997
  0
POINT
  8
PLAN_1
 62
7
 10
69.849991
 20
73.639671
  0
POINT
  8
PLAN_1
 62
7
 10
64.769997
 20
76.199997
  0
POINT
  8
PLAN_1
 62
7
 10
69.849991
 20
71.119995
  0
POINT
  8
PLAN_1
 62
7
 10
69.849991
 20
68.579994
  0
POINT
  8
PLAN_1
 62
7
 10
77.469994
 20
73.659996
  0
POINT
  8
PLAN_1
 62
7
 10
77.469994
 20
71.119995
  0
POINT
  8
PLAN_1
 62
7
 10
69.849991
 20
66.039993
  0
POINT
  8
PLAN_1
 62
7
 10
77.469994
 20
68.579994
  0
POINT
  8
PLAN_1
 62
7
 10
64.769997
 20
64.769997
  0
POINT
  8
PLAN_1
 62
7
 10
69.849991
 20
63.499996
  0
POINT
  8
PLAN_1
 62
7
 10
77.469994
 20
66.039993
  0
POINT
  8
PLAN_1
 62
7
 10
82.549995
 20
73.659996
  0
POINT
  8
PLAN_1
 62
7
 10
77.469994
 20
63.499996
  0
POINT
  8
PLAN_1
 62
7
 10
69.849991
 20
60.959995
  0
POINT
  8
PLAN_1
 62
7
 10
77.469994
 20
60.959995
  0
POINT
  8
PLAN_1
 62
7
 10
69.849991
 20
58.419994
  0
POINT
  8
PLAN_1
 62
7
 10
82.549995
 20
63.499996
  0
POINT
  8
PLAN_1
 62
7
 10
54.609997
 20
64.769997
  0
POINT
  8
PLAN_1
 62
7
 10
77.469994
 20
58.419994
  0
POINT
  8
PLAN_1
 62
7
 10
52.07
 20
66.801994
  0
POINT
  8
PLAN_1
 62
7
 10
69.849991
 20
55.879997
  0
POINT
  8
PLAN_1
 62
7
 10
52.07
 20
64.769997
  0
POINT
  8
PLAN_1
 62
7
 10
77.469994
 20
55.879997
  0
POINT
  8
PLAN_1
 62
7
 10
91.439995
 20
71.119995
  0
POINT
  8
PLAN_1
 62
7
 10
52.07
 20
62.737995
  0
POINT
  8
PLAN_1
 62
7
 10
69.849991
 20
53.339996
  0
POINT
  8
PLAN_1
 62
7
 10
91.439995
 20
68.579994
  0
POINT
  8
PLAN_1
 62
7
 10
91.439995
 20
66.039993
  0
POINT
  8
PLAN_1
 62
7
 10
77.469994
 20
53.339996
  0
POINT
  8
PLAN_1
 62
7
 10
46.451515
 20
68.737473
  0
POINT
  8
PLAN_1
 62
7
 10
82.549995
 20
54.609997
  0
POINT
  8
PLAN_1
 62
7
 10
91.439995
 20
63.499996
  0
POINT
  8
PLAN_1
 62
7
 10
69.849991
 20
50.799995
  0
POINT
  8
PLAN_1
 62
7
 10
44.449997
 20
74.736954
  0
POINT
  8
PLAN_1
 62
7
 10
91.439995
 20
60.959995
  0
POINT
  8
PLAN_1
 62
7
 10
77.469994
 20
50.799995
  0
POINT
  8
PLAN_1
 62
7
 10
69.849991
 20
48.259998
  0
POINT
  8
PLAN_1
 62
7
 10
44.449997
 20
62.737995
  0
POINT
  8
PLAN_1
 62
7
 10
77.469994
 20
48.259998
  0
POINT
  8
PLAN_1
 62
7
 10
82.549995
 20
49.529999
  0
POINT
  8
PLAN_1
 62
7
 10
64.769997
 20
46.989998
  0
POINT
  8
PLAN_1
 62
7
 10
87.629997
 20
52.069996
  0
POINT
  8
PLAN_1
 62
7
 10
69.849991
 20
45.719997
  0
POINT
  8
PLAN_1
 62
7
 10
91.439995
 20
54.609997
  0
POINT
  8
PLAN_1
 62
7
 10
100.329994
 20
71.119995
  0
POINT
  8
PLAN_1
 62
7
 10
100.329994
 20
81.279991
  0
POINT
  8
PLAN_1
 62
7
 10
77.469994
 20
45.719997
  0
POINT
  8
PLAN_1
 62
7
 10
44.449997
 20
56.956955
  0
POINT
  8
PLAN_1
 62
7
 10
87.629997
 20
49.529999
  0
POINT
  8
PLAN_1
 62
7
 10
91.439995
 20
52.069996
  0
POINT
  8
PLAN_1
 62
7
 10
52.07
 20
49.021996
  0
POINT
  8
PLAN_1
 62
7
 10
54.609997
 20
46.989998
  0
POINT
  8
PLAN_1
 62
7
 10
69.849991
 20
43.179996
  0
POINT
  8
PLAN_1
 62
7
 10
77.469994
 20
43.179996
  0
POINT
  8
PLAN_1
 62
7
 10
52.07
 20
46.989998
  0
POINT
  8
PLAN_1
 62
7
 10
46.451515
 20
50.957478
  0
POINT
  8
PLAN_1
 62
7
 10
69.849991
 20
40.639999
  0
POINT
  8
PLAN_1
 62
7
 10
52.07
 20
44.957996
  0
POINT
  8
PLAN_1
 62
7
 10
77.469994
 20
40.639999
  0
POINT
  8
PLAN_1
 62
7
 10
32.250381
 20
74.736954
  0
POINT
  8
PLAN_1
 62
7
 10
82.549995
 20
40.639999
  0
POINT
  8
PLAN_1
 62
7
 10
85.089996
 20
40.639999
  0
POINT
  8
PLAN_1
 62
7
 10
95.25
 20
45.643799
  0
POINT
  8
PLAN_1
 62
7
 10
87.629997
 20
40.639999
  0
POINT
  8
PLAN_1
 62
7
 10
32.250381
 20
62.737995
  0
POINT
  8
PLAN_1
 62
7
 10
44.449997
 20
44.957996
  0
POINT
  8
PLAN_1
 62
7
 10
110.48999
 20
78.739998
  0
POINT
  8
PLAN_1
 62
7
 10
69.849991
 20
34.289997
  0
POINT
  8
PLAN_1
 62
7
 10
72.389999
 20
34.289997
  0
POINT
  8
PLAN_1
 62
7
 10
74.929993
 20
34.289997
  0
POINT
  8
PLAN_1
 62
7
 10
32.250381
 20
56.956955
  0
POINT
  8
PLAN_1
 62
7
 10
77.469994
 20
34.289997
  0
POINT
  8
PLAN_1
 62
7
 10
95.25
 20
40.639999
  0
POINT
  8
PLAN_1
 62
7
 10
44.449997
 20
39.176956
  0
POINT
  8
PLAN_1
 62
7
 10
64.769997
 20
29.209999
  0
POINT
  8
PLAN_1
 62
7
 10
52.07
 20
31.241997
  0
POINT
  8
PLAN_1
 62
7
 10
32.250381
 20
44.957996
  0
POINT
  8
PLAN_1
 62
7
 10
46.451515
 20
33.177479
  0
POINT
  8
PLAN_1
 62
7
 10
54.609997
 20
29.209999
  0
POINT
  8
PLAN_1
 62
7
 10
52.07
 20
29.209999
  0
POINT
  8
PLAN_1
 62
7
 10
69.849991
 20
24.129997
  0
POINT
  8
PLAN_1
 62
7
 10
72.389999
 20
24.129997
  0
POINT
  8
PLAN_1
 62
7
 10
52.07
 20
27.177998
  0
POINT
  8
PLAN_1
 62
7
 10
74.929993
 20
24.129997
  0
POINT
  8
PLAN_1
 62
7
 10
77.469994
 20
24.129997
  0
POINT
  8
PLAN_1
 62
7
 10
17.241524
 20
73.817474
  0
POINT
  8
PLAN_1
 62
7
 10
32.250381
 20
39.176956
  0
POINT
  8
PLAN_1
 62
7
 10
17.241524
 20
68.737473
  0
POINT
  8
PLAN_1
 62
7
 10
17.241524
 20
63.657475
  0
POINT
  8
PLAN_1
 62
7
 10
44.449997
 20
27.177998
  0
POINT
  8
PLAN_1
 62
7
 10
17.241524
 20
56.037476
  0
POINT
  8
PLAN_1
 62
7
 10
17.241524
 20
50.957478
  0
POINT
  8
PLAN_1
 62
7
 10
44.449997
 20
21.396957
  0
POINT
  8
PLAN_1
 62
7
 10
17.241524
 20
45.877476
  0
POINT
  8
PLAN_1
 62
7
 10
32.250381
 20
27.177998
  0
POINT
  8
PLAN_1
 62
7
 10
7.620003
 20
78.739998
  0
POINT
  8
PLAN_1
 62
7
 10
17.241524
 20
38.257477
  0
POINT
  8
PLAN_1
 62
7
 10
64.769997
 20
11.429999
  0
POINT
  8
PLAN_1
 62
7
 10
46.451515
 20
15.397479
  0
POINT
  8
PLAN_1
 62
7
 10
52.07
 20
13.461999
  0
POINT
  8
PLAN_1
 62
7
 10
32.250381
 20
21.396957
  0
POINT
  8
PLAN_1
 62
7
 10
54.609997
 20
11.429999
  0
POINT
  8
PLAN_1
 62
7
 10
52.07
 20
11.429999
  0
POINT
  8
PLAN_1
 62
7
 10
17.241524
 20
33.177479
  0
POINT
  8
PLAN_1
 62
7
 10
82.549995
 20
8.889999
  0
POINT
  8
PLAN_1
 62
7
 10
52.07
 20
9.397999
  0
POINT
  8
PLAN_1
 62
7
 10
87.629997
 20
8.889999
  0
POINT
  8
PLAN_1
 62
7
 10
92.709991
 20
8.889999
  0
POINT
  8
PLAN_1
 62
7
 10
17.241524
 20
28.097477
  0
POINT
  8
PLAN_1
 62
7
 10
44.449997
 20
9.397999
  0
POINT
  8
PLAN_1
 62
7
 10
97.789993
 20
8.889999
  0
POINT
  8
PLAN_1
 62
7
 10
102.869995
 20
8.889999
  0
POINT
  8
PLAN_1
 62
7
 10
17.241524
 20
20.477478
  0
POINT
  8
PLAN_1
 62
7
 10
32.250381
 20
9.397999
  0
POINT
  8
PLAN_1
 62
7
 10
110.48999
 20
7.619999
  0
POINT
  8
PLAN_1
 62
7
 10
17.241524
 20
15.397479
  0
POINT
  8
PLAN_1
 62
7
 10
17.241524
 20
10.317479
  0
POINT
  8
PLAN_1
 62
7
 10
7.620003
 20
7.619999
  0
LINE
  8
PLAN_1
 62
7
 10
116.319992
 20
1.79
 11
116.319992
 21
84.569992
  0
LINE
  8
PLAN_1
 62
7
 10
116.319992
 20
84.569992
 11
1.790001
 21
84.569992
  0
LINE
  8
PLAN_1
 62
7
 10
1.790001
 20
84.569992
 11
1.790001
 21
1.79
  0
LINE
  8
PLAN_1
 62
7
 10
1.790001
 20
1.79
 11
116.319992
 21
1.79
  0
ENDSEC
  0
EOF
