M48
INCH
T01C0.0400
T02C0.0300
T03C0.0600
%
T01
X-023000Y+014000
X-002000Y+014000
X+019000Y+014000
X+040000Y+014000
T02
X-023000Y+013000
X-023000Y+012000
X-023000Y+011000
X-020000Y+011000
X-020000Y+012000
X-020000Y+013000
X-020000Y+014000
X-020000Y+006500
X-021000Y+006500
X-020000Y+009000
X-021000Y+009000
X-024500Y+015000
X-024500Y+011000
X-027000Y+012000
X-031000Y+012000
X-032500Y+011200
X-032500Y+012000
X-032500Y+012800
X-017500Y+015000
X-017500Y+013000
X-018500Y+014000
X-002000Y+013000
X-002000Y+012000
X-002000Y+011000
X+001000Y+011000
X+001000Y+012000
X+001000Y+013000
X+001000Y+014000
X+001000Y+006500
X+000000Y+006500
X+001000Y+009000
X+000000Y+009000
X-003500Y+015000
X-003500Y+011000
X-006000Y+012000
X-010000Y+012000
X-011500Y+011200
X-011500Y+012000
X-011500Y+012800
X+003500Y+015000
X+003500Y+013000
X+002500Y+014000
X+019000Y+013000
X+019000Y+012000
X+019000Y+011000
X+022000Y+011000
X+022000Y+012000
X+022000Y+013000
X+022000Y+014000
X+022000Y+006500
X+021000Y+006500
X+022000Y+009000
X+021000Y+009000
X+017500Y+015000
X+017500Y+011000
X+015000Y+012000
X+011000Y+012000
X+009500Y+011200
X+009500Y+012000
X+009500Y+012800
X+024500Y+015000
X+024500Y+013000
X+023500Y+014000
X+040000Y+013000
X+040000Y+012000
X+040000Y+011000
X+043000Y+011000
X+043000Y+012000
X+043000Y+013000
X+043000Y+014000
X+043000Y+006500
X+042000Y+006500
X+043000Y+009000
X+042000Y+009000
X+038500Y+015000
X+038500Y+011000
X+036000Y+012000
X+032000Y+012000
X+030500Y+011200
X+030500Y+012000
X+030500Y+012800
X+045500Y+015000
X+045500Y+013000
X+044500Y+014000
T03
X-018500Y+033000
X-018500Y+031000
X-031500Y+029000
X-031500Y+031000
X-031500Y+033000
X-031862Y+017787
X-027137Y+017787
X-029500Y+017000
X-027137Y+022708
X-031862Y+022708
X-037500Y+021500
X-037500Y+019500
X-027500Y+029000
X-027500Y+031000
X-027500Y+033000
X-036249Y+000798
X-036249Y+038199
X+045443Y+038199
X+045443Y+000798
X+002500Y+033000
X+002500Y+031000
X-010500Y+029000
X-010500Y+031000
X-010500Y+033000
X-010862Y+017787
X-006137Y+017787
X-008500Y+017000
X-006137Y+022708
X-010862Y+022708
X-006500Y+029000
X-006500Y+031000
X-006500Y+033000
X+023500Y+033000
X+023500Y+031000
X+010500Y+029000
X+010500Y+031000
X+010500Y+033000
X+010137Y+017787
X+014862Y+017787
X+012500Y+017000
X+014862Y+022708
X+010137Y+022708
X+014500Y+029000
X+014500Y+031000
X+014500Y+033000
X+044500Y+033000
X+044500Y+031000
X+031500Y+029000
X+031500Y+031000
X+031500Y+033000
X+031137Y+017787
X+035862Y+017787
X+033500Y+017000
X+035862Y+022708
X+031137Y+022708
X+035500Y+029000
X+035500Y+031000
X+035500Y+033000
M30
