M48
INCH
T01C0.0150
T02C0.0600
T03C0.0300
T04C0.0800
%
T01
X+006452Y+008484
X+002952Y+008484
X+014952Y+008484
X+011452Y+008484
X+023452Y+008484
X+019952Y+008484
X+031952Y+008484
X+028452Y+008484
T02
X+005228Y+022984
X+009952Y+022984
X+007590Y+022196
X+009952Y+027905
X+005228Y+027905
X+005590Y+033023
X+007590Y+033023
X+009590Y+033023
X+007952Y+006984
X+009952Y+006984
X+005952Y+006984
X+003952Y+006984
X+013728Y+022984
X+018452Y+022984
X+016090Y+022196
X+018452Y+027905
X+013728Y+027905
X+014090Y+033023
X+016090Y+033023
X+018090Y+033023
X+016452Y+006984
X+018452Y+006984
X+022228Y+022984
X+026952Y+022984
X+024590Y+022196
X+026952Y+027905
X+022228Y+027905
X+022590Y+033023
X+024590Y+033023
X+026590Y+033023
X+024952Y+006984
X+026952Y+006984
X+030728Y+022984
X+035452Y+022984
X+033090Y+022196
X+035452Y+027905
X+030728Y+027905
X+031090Y+033023
X+033090Y+033023
X+035090Y+033023
X+033452Y+006984
X+035452Y+006984
T03
X+009452Y+013484
X+009452Y+014484
X+009452Y+015484
X+009452Y+016484
X+006452Y+016484
X+006452Y+015484
X+006452Y+014484
X+006452Y+013484
X+008652Y+019984
X+009452Y+019984
X+010252Y+019984
X+004952Y+016984
X+004952Y+017984
X+004952Y+015484
X+004952Y+014484
X+010452Y+012484
X+010452Y+016484
X+005452Y+018984
X+009452Y+018984
X+005452Y+011484
X+007452Y+011484
X+006452Y+010484
X+017952Y+013484
X+017952Y+014484
X+017952Y+015484
X+017952Y+016484
X+014952Y+016484
X+014952Y+015484
X+014952Y+014484
X+014952Y+013484
X+017152Y+019984
X+017952Y+019984
X+018752Y+019984
X+013452Y+016984
X+013452Y+017984
X+013452Y+015484
X+013452Y+014484
X+018952Y+012484
X+018952Y+016484
X+013952Y+018984
X+017952Y+018984
X+013952Y+011484
X+015952Y+011484
X+014952Y+010484
X+026452Y+013484
X+026452Y+014484
X+026452Y+015484
X+026452Y+016484
X+023452Y+016484
X+023452Y+015484
X+023452Y+014484
X+023452Y+013484
X+025652Y+019984
X+026452Y+019984
X+027252Y+019984
X+021952Y+016984
X+021952Y+017984
X+021952Y+015484
X+021952Y+014484
X+027452Y+012484
X+027452Y+016484
X+022452Y+018984
X+026452Y+018984
X+022452Y+011484
X+024452Y+011484
X+023452Y+010484
X+034952Y+013484
X+034952Y+014484
X+034952Y+015484
X+034952Y+016484
X+031952Y+016484
X+031952Y+015484
X+031952Y+014484
X+031952Y+013484
X+034152Y+019984
X+034952Y+019984
X+035752Y+019984
X+030452Y+016984
X+030452Y+017984
X+030452Y+015484
X+030452Y+014484
X+035952Y+012484
X+035952Y+016484
X+030952Y+018984
X+034952Y+018984
X+030952Y+011484
X+032952Y+011484
X+031952Y+010484
T04
X+001968Y+001968
X+037401Y+001968
X+037401Y+037401
X+001968Y+037401
M30
